<svg xmlns="http://www.w3.org/2000/svg" viewBox="0 0 1280 360" width="1280" height="360" role="img" aria-label="Qyra: the offline PDF toolkit">
  <defs>
    <linearGradient id="bg" x1="0" y1="0" x2="1" y2="1">
      <stop offset="0%" stop-color="#0b0f1a"/>
      <stop offset="55%" stop-color="#141a2c"/>
      <stop offset="100%" stop-color="#1d1130"/>
    </linearGradient>
    <linearGradient id="accent" x1="0" y1="0" x2="1" y2="0">
      <stop offset="0%" stop-color="#7c5cff"/>
      <stop offset="50%" stop-color="#5eb1ff"/>
      <stop offset="100%" stop-color="#3ee9d1"/>
    </linearGradient>
    <linearGradient id="paper" x1="0" y1="0" x2="0" y2="1">
      <stop offset="0%" stop-color="#ffffff" stop-opacity="0.95"/>
      <stop offset="100%" stop-color="#cfd6e6" stop-opacity="0.85"/>
    </linearGradient>
    <radialGradient id="glow" cx="0.78" cy="0.5" r="0.55">
      <stop offset="0%" stop-color="#7c5cff" stop-opacity="0.35"/>
      <stop offset="60%" stop-color="#7c5cff" stop-opacity="0.05"/>
      <stop offset="100%" stop-color="#7c5cff" stop-opacity="0"/>
    </radialGradient>
    <pattern id="grid" width="32" height="32" patternUnits="userSpaceOnUse">
      <path d="M 32 0 L 0 0 0 32" fill="none" stroke="#ffffff" stroke-opacity="0.04" stroke-width="1"/>
    </pattern>
    <filter id="soft" x="-20%" y="-20%" width="140%" height="140%">
      <feGaussianBlur stdDeviation="14"/>
    </filter>
  </defs>

  <rect width="1280" height="360" fill="url(#bg)"/>
  <rect width="1280" height="360" fill="url(#grid)"/>
  <rect width="1280" height="360" fill="url(#glow)"/>

  <!-- Stacked PDF pages, right side -->
  <g transform="translate(880,60)" filter="url(#soft)" opacity="0.55">
    <rect x="40" y="40" width="220" height="260" rx="10" fill="#7c5cff" opacity="0.4"/>
  </g>
  <g transform="translate(880,60)">
    <rect x="60" y="50" width="220" height="260" rx="10" fill="url(#paper)" stroke="#2a3147" stroke-width="1"/>
    <rect x="40" y="30" width="220" height="260" rx="10" fill="url(#paper)" stroke="#2a3147" stroke-width="1"/>
    <rect x="20" y="10" width="220" height="260" rx="10" fill="url(#paper)" stroke="#2a3147" stroke-width="1"/>
    <!-- Page text lines -->
    <g fill="#1d2540" opacity="0.55">
      <rect x="40"  y="40" width="120" height="8" rx="2"/>
      <rect x="40"  y="60" width="180" height="6" rx="2"/>
      <rect x="40"  y="76" width="160" height="6" rx="2"/>
      <rect x="40"  y="92" width="170" height="6" rx="2"/>
      <rect x="40" y="116" width="100" height="6" rx="2"/>
      <rect x="40" y="132" width="180" height="6" rx="2"/>
      <rect x="40" y="148" width="140" height="6" rx="2"/>
      <rect x="40" y="172" width="180" height="6" rx="2"/>
      <rect x="40" y="188" width="120" height="6" rx="2"/>
      <rect x="40" y="220" width="80"  height="22" rx="3" fill="url(#accent)" opacity="0.9"/>
    </g>
  </g>

  <!-- Title -->
  <g transform="translate(80,140)" font-family="Inter, Geist, system-ui, sans-serif">
    <text font-size="112" font-weight="800" fill="url(#accent)" letter-spacing="-3">Qyra</text>
    <text y="56" font-size="22" font-weight="500" fill="#c8d0e3" letter-spacing="0.5">
      The offline, open-source PDF toolkit.
    </text>
    <text y="92" font-size="16" font-weight="400" fill="#8b94ad" letter-spacing="0.3">
      View · Annotate · Merge · Split · OCR · Convert · Protect
    </text>
    <g transform="translate(0,116)">
      <rect width="120" height="32" rx="16" fill="#7c5cff" opacity="0.18" stroke="#7c5cff" stroke-opacity="0.5"/>
      <text x="60" y="21" font-size="13" font-weight="600" fill="#cdbfff" text-anchor="middle">100% offline</text>
      <rect x="132" width="130" height="32" rx="16" fill="#3ee9d1" opacity="0.16" stroke="#3ee9d1" stroke-opacity="0.5"/>
      <text x="197" y="21" font-size="13" font-weight="600" fill="#a3f1e3" text-anchor="middle">MuPDF + Rust</text>
      <rect x="274" width="100" height="32" rx="16" fill="#5eb1ff" opacity="0.16" stroke="#5eb1ff" stroke-opacity="0.5"/>
      <text x="324" y="21" font-size="13" font-weight="600" fill="#bfdcff" text-anchor="middle">GPL-3.0</text>
    </g>
  </g>
</svg>
